<?xml version="1.0" encoding="UTF-8"?>
<svg version="1.1" xmlns="http://www.w3.org/2000/svg" width="560" height="560">
<path d="M0 0 C17.10554229 12.09626535 23.48368583 34.45988675 27.02856445 54.13769531 C27.22538818 55.28850586 27.42221191 56.43931641 27.625 57.625 C27.83664795 58.8325293 28.0482959 60.04005859 28.26635742 61.28417969 C29.9527013 71.15450182 31.17676977 81.02294106 32 91 C32.09498779 90.17612793 32.18997559 89.35225586 32.2878418 88.50341797 C40.35556102 19.64292075 40.35556102 19.64292075 60.45703125 2.9609375 C70.82792515 -4.59566585 80.54352444 -5.01544466 93 -4 C105.10631896 -1.87938094 114.9045463 5.45400281 122.16015625 15.1875 C139.18215767 41.20839389 141.22694562 73.44987545 141.1875 103.6875 C141.18689575 104.54582428 141.1862915 105.40414856 141.18566895 106.28848267 C141.11240666 144.79719344 135.39567923 181.94246109 125 219 C125.99257813 219.3403125 126.98515625 219.680625 128.0078125 220.03125 C159.1914438 231.02495862 183.12820783 252.6741106 197.46875 282.4375 C200.51416274 289.52274596 202.94823152 296.87012008 204.8515625 304.34375 C205.72119206 307.13792836 205.72119206 307.13792836 208.06640625 308.03125 C208.89011719 308.1859375 209.71382813 308.340625 210.5625 308.5 C219.47215368 310.7370559 225.02629075 315.12496036 229.90625 322.8515625 C233.35711641 329.63005008 233.25780412 338.76971707 231.12890625 345.9296875 C228.45897062 351.68974535 225.06072341 355.22926491 220 359 C221.02935353 361.1986192 222.1139448 363.16294697 223.5078125 365.15625 C228.59307014 372.52618862 229.14853281 378.57915466 227.58984375 387.29296875 C225.88996823 393.11307234 221.88538768 396.63015229 217 400 C214.68104229 401.22922194 212.48323624 402.1205205 210 403 C210.05220703 404.051875 210.05220703 404.051875 210.10546875 405.125 C210.32538817 412.83265192 209.44543643 418.28968265 205.1875 424.75 C200.55371428 429.5161796 195.61220679 432.16035469 189 433 C187.26998742 432.93661023 185.54062387 432.85271167 183.8125 432.75 C181.28741192 432.63985301 181.28741192 432.63985301 179 433 C176.59383049 435.24934864 176.59383049 435.24934864 175.37109375 437.1640625 C156.10335581 462.96416743 111.65557838 469.77827362 82.29296875 474.0546875 C71.18847691 475.63978673 60.1685148 476.16454344 48.9609375 476.203125 C47.64122955 476.20882507 46.32152161 476.21452515 44.96182251 476.22039795 C42.17669298 476.23082442 39.39159153 476.23671895 36.60644531 476.24023438 C33.81041148 476.24458267 31.01469256 476.25834797 28.21875 476.28125 C-17.01003108 476.64389605 -69.67810444 472.00704824 -106 442 C-107.60786627 440.31473644 -109.19377734 438.60806614 -110.75 436.875 C-113.60013559 433.80975979 -113.60013559 433.80975979 -117.453125 432.546875 C-119.14556053 432.5987902 -120.837224 432.70146473 -122.5234375 432.85546875 C-128.73354517 433.21788828 -133.69310234 430.54921121 -138.375 426.6875 C-144.17811005 421.1612779 -145.60741592 415.78399464 -146 408 C-146.01172029 406.33337454 -146.01464501 404.66660232 -146 403 C-146.99580078 402.56300781 -146.99580078 402.56300781 -148.01171875 402.1171875 C-155.29441901 398.73631351 -159.55257717 395.72420233 -162.8125 388.1875 C-165.02466999 381.55099003 -164.67214628 375.29174417 -162 368.85546875 C-160.39240173 365.87262039 -158.2350202 363.53704995 -156 361 C-156 360.34 -156 359.68 -156 359 C-157.02732253 358.12366724 -158.09867302 357.29862789 -159.1875 356.5 C-164.65837991 351.87421536 -167.52248438 346.69027421 -168.4453125 339.55859375 C-168.7439135 330.33182282 -167.04340459 322.45294314 -160.74609375 315.41015625 C-155.95542914 311.5411855 -149.76789848 308.59909774 -143.76953125 307.30078125 C-140.65518309 306.21488297 -140.65518309 306.21488297 -139.6015625 302.68359375 C-139.2564791 301.27287118 -138.93226261 299.85694017 -138.625 298.4375 C-133.6719667 279.12808733 -123.71827135 263.36442181 -110 249 C-109.4121875 248.33742188 -108.824375 247.67484375 -108.21875 246.9921875 C-96.11925996 233.88440662 -78.03915255 223.8683293 -61 219 C-61.23074219 218.08863281 -61.46148437 217.17726563 -61.69921875 216.23828125 C-62.6053439 212.64776034 -63.49812916 209.05400752 -64.38818359 205.45947266 C-64.79400273 203.82809916 -65.20314993 202.19754972 -65.61572266 200.56787109 C-70.82656346 179.9574631 -74.33986965 159.19719564 -76 138 C-76.05784668 137.30938477 -76.11569336 136.61876953 -76.17529297 135.90722656 C-79.48185679 95.22766096 -81.03957513 42.19098518 -53.15234375 9.21875 C-40.56766207 -3.7542068 -16.23615883 -10.51626435 0 0 Z " fill="#97948C" transform="translate(248,44)"/>
<path d="M0 0 C2.1796875 1.40234375 2.1796875 1.40234375 4 2.875 C4.55945313 3.30941406 5.11890625 3.74382812 5.6953125 4.19140625 C8.69057557 7.06391263 9.3639296 9.84109209 9.5625 13.8125 C9.27234867 18.53276673 8.32825455 22.39391743 5 25.875 C0.11901962 29.56916665 -4.75462915 32.54629627 -11 32.875 C-8.65464481 38.55903729 -6.62616767 41.88235762 -1 44.875 C5.67899417 47.10133139 12.27305513 46.23315093 18.6953125 43.4921875 C23.08567823 40.41149019 24.86302627 35.64573471 27 30.875 C28 29.875 28 29.875 30.4375 29.6875 C33 29.875 33 29.875 35 31.875 C35.49930223 36.88882656 34.27009358 41.05329085 31.375 45.125 C27.42063907 49.8532454 23.32549722 53.75310122 17.0625 54.6875 C16.051875 54.749375 15.04125 54.81125 14 54.875 C14.0825 55.803125 14.165 56.73125 14.25 57.6875 C14.20007098 65.90914573 10.51832577 73.34926083 4.9375 79.21875 C-2.97357904 85.9814466 -12.08024388 86.5090055 -22.03955078 86.04541016 C-29.63397519 85.38527214 -35.24281802 81.65427052 -40.30859375 76.1484375 C-44.83946833 70.05843979 -46.44793297 63.32790493 -47 55.875 C-48.155 55.50375 -49.31 55.1325 -50.5 54.75 C-58.73385067 51.58761842 -63.36962523 47.28956324 -67.1875 39.33984375 C-68.07210063 36.65627165 -68.3028325 34.68093234 -68 31.875 C-67.34 31.215 -66.68 30.555 -66 29.875 C-62.375 30.25 -62.375 30.25 -59 30.875 C-58.443125 32.7003125 -58.443125 32.7003125 -57.875 34.5625 C-55.77150176 40.1422019 -52.61937738 42.65262389 -47.1875 45.1875 C-40.420441 46.64706174 -34.86691929 46.58947574 -28.7265625 43.15234375 C-25.10996719 40.47671781 -23.39101975 37.04805926 -22 32.875 C-22.804375 32.83375 -23.60875 32.7925 -24.4375 32.75 C-30.96224976 31.14742988 -36.25269976 27.50067422 -40.0625 21.9375 C-42.15389241 18.12506592 -42.7280601 15.2433606 -42 10.875 C-39.19694269 5.48450518 -35.29018422 1.65770438 -29.9453125 -1.23828125 C-21.21555719 -3.86647018 -8.28158223 -3.9083036 0 0 Z " fill="#251A17" transform="translate(298,378.125)"/>
<path d="M0 0 C1.05936768 0.00241699 1.05936768 0.00241699 2.14013672 0.00488281 C11.69954082 0.22287057 21.02843447 2.40660227 28.6875 8.375 C29.25 11.5 29.25 11.5 28.6875 14.375 C25.6875 16.375 25.6875 16.375 23.78515625 16.125 C21.6875 15.375 21.6875 15.375 19.55859375 14.4375 C12.42483759 11.32292267 5.83024504 10.85604484 -1.84985352 10.79101562 C-2.64190186 10.77619141 -3.4339502 10.76136719 -4.25 10.74609375 C-4.96027344 10.74536865 -5.67054688 10.74464355 -6.40234375 10.74389648 C-8.89033918 10.26340555 -9.79922664 9.37549248 -11.3125 7.375 C-11.1875 4.8125 -11.1875 4.8125 -10.3125 2.375 C-6.74818955 -0.00120697 -4.12683086 -0.00973539 0 0 Z " fill="#271C19" transform="translate(314.3125,349.625)"/>
<path d="M0 0 C2.44140625 1.89453125 2.44140625 1.89453125 4 4 C3.82246387 7.01811422 3.16264785 7.83735215 1 10 C-0.92016602 10.25537109 -0.92016602 10.25537109 -3.25390625 10.2734375 C-4.10919922 10.2940625 -4.96449219 10.3146875 -5.84570312 10.3359375 C-7.62946606 10.3615847 -9.41334969 10.38004581 -11.19726562 10.390625 C-17.66238004 10.56418512 -22.25996909 12.11993521 -28 15 C-30.875 15.9375 -30.875 15.9375 -33 16 C-35.42747403 14.49329198 -35.89672919 13.35675371 -36.6875 10.625 C-35.88705785 7.56876634 -35.33293117 7.1403653 -32.8125 5.375 C-23.3091722 0.08981595 -10.73955165 -1.65725767 0 0 Z " fill="#261C18" transform="translate(256,350)"/>
<path d="M0 0 C5 2 5 2 7.4375 3.0625 C10.27714594 4.10139486 13.01093625 4.58292134 16 5 C15.83015071 11.67044497 14.61763537 16.98185544 10 22 C6.79412564 24.09506702 3.86530608 25 0 25 C0 16.75 0 8.5 0 0 Z " fill="#F2F1F1" transform="translate(286,429)"/>
<path d="M0 0 C0.66 0 1.32 0 2 0 C2 8.25 2 16.5 2 25 C-3.60828909 24.06528515 -6.5202357 23.32038151 -10 19 C-12.45534768 14.31665164 -14 10.31522112 -14 5 C-13.07316406 4.72285156 -12.14632813 4.44570313 -11.19140625 4.16015625 C-9.99386719 3.79792969 -8.79632813 3.43570312 -7.5625 3.0625 C-6.36753906 2.70285156 -5.17257812 2.34320313 -3.94140625 1.97265625 C-1.14132455 1.29110858 -1.14132455 1.29110858 0 0 Z " fill="#F7F6F6" transform="translate(275,429)"/>
<path d="M0 0 C0.99 0.103125 1.98 0.20625 3 0.3125 C5 3.3125 5 3.3125 4.875 5.125 C3.66469686 8.15075784 1.83011672 10.62115189 0 13.3125 C-0.474375 14.405625 -0.94875 15.49875 -1.4375 16.625 C-3 19.3125 -3 19.3125 -5.5 20.375 C-8 20.3125 -8 20.3125 -9.875 19.3125 C-11.72424905 16.02494613 -10.94059605 13.89852244 -10 10.3125 C-4.92328179 0.51284185 -4.92328179 0.51284185 0 0 Z " fill="#261C18" transform="translate(361,425.6875)"/>
</svg>
