<?xml version="1.0" encoding="UTF-8"?>
<svg xmlns="http://www.w3.org/2000/svg" viewBox="0 0 154.63 167.71">
  <defs>
    <style>
      .cls-1 {
        fill: #5a287f;
        mix-blend-mode: multiply;
        opacity: .16;
      }

      .cls-1, .cls-2, .cls-3, .cls-4 {
        stroke-width: 0px;
      }

      .cls-2 {
        fill: #f2f2f9;
      }

      .cls-3 {
        fill: #000;
      }

      .cls-5 {
        isolation: isolate;
      }

      .cls-4 {
        fill: #fff;
      }
    </style>
  </defs>
  <g class="cls-5">
    <g id="Layer_2" data-name="Layer 2">
      <g id="Objects">
        <g>
          <g>
            <path class="cls-2" d="M133.72,90.05h0c17.48-15.78,9.58-32.66,5.02-33.54-3.58-.69-5.61,3.46-7.26,5.94-1.99,2.99-4.03,5.07-5.57,6.39-8.54-21.8-25.5-47.01-60.77-30.24-17.24,8.2-22.71,26.19-22.56,46.28-1.84-.62-4.17-1.63-6.73-3.24-2.52-1.58-6.08-4.54-9.06-2.44-3.75,2.64-4.05,20.84,17.54,28.24,1.62,14.99,2.69,22.58.45,32.89-2.8,12.84-7.13,25.19,2.12,26.87,5.93,1.07,14.25-1.34,19.22-5.4.37,3.1,2.11,5.77,6.43,5.9,12.64.4,20.41-13.23,23.18-14.16s17.14,8.43,24.97,5.71c7.82-2.71,4.01-11.33,4.01-11.33,0,0,10.56,2.19,19.31-3.83,8.75-6.02-2.13-13.26-2.13-13.26,0,0,11.48-1.11,12.68-10.29,1.11-8.5-13.35-12.05-20.85-30.49Z"/>
            <path class="cls-3" d="M69.73,68.28c-4.31-.77-8.55,2.92-9.94,8.15-1.44,5.44,2.69,11.96,9.28,9.35,6.6-2.61,8.55-16.1.65-17.51Z"/>
            <path class="cls-3" d="M93.87,64.41c3.86-2.08,9.03.1,11.99,4.64,3.07,4.72,1.19,12.2-5.89,11.79s-13.16-12.62-6.1-16.42Z"/>
            <path class="cls-3" d="M82.32,75.92c-4.09,1.2-4.5,10.01-2.42,11.59,2.08,1.58,3.18-1.78,4.85-2.14s3.66,1.87,5.32-.31c1.66-2.18-1.86-10.87-7.74-9.14Z"/>
            <path class="cls-1" d="M63.6,89.91c-.06-.46-.44-.69-.87-.5-.59.26-1.01.58-1.42,1.08-.37.45-.84.9-1.01,1.47-.15.5.26.93.73.96.71.05,1.45-.5,1.9-1,.53-.58.77-1.23.67-2.01Z"/>
            <path class="cls-1" d="M66.5,89.81c-.46-.27-.97-.14-1.36.18-.39.31-.64.88-.85,1.31-.24.5-.41,1.56.39,1.7,1,.17,2.02-1.08,2.34-1.92.17-.46-.12-1.04-.52-1.27Z"/>
            <path class="cls-1" d="M69.45,88.79c-.63-.17-1.11.45-1.23.98-.13.59-.24,1.29.16,1.78.12.14.38.2.55.14.88-.3,1.82-2.55.52-2.91Z"/>
            <path class="cls-1" d="M103.75,82.19c-.27-.25-.67-.25-.94,0-.56.52-.71,1.11-.66,1.85.05.68.11,1.39.6,1.91.27.29.78.29,1.05,0,.49-.52.56-1.23.6-1.91.05-.74-.1-1.33-.66-1.85Z"/>
            <path class="cls-1" d="M109.24,82.88c-.46-.64-.89-1.33-1.24-2.04-.58-1.17-2.36-.34-2.06.87.22.89.64,1.67,1.16,2.43.37.56,1.09.8,1.7.45.54-.31.84-1.15.45-1.7Z"/>
            <path class="cls-1" d="M111.85,80.03c-.22-.28-.54-.43-.87-.54-.54-.19-.98-.23-1.53-.12-.2.04-.26.28-.18.44.23.45.5.79.85,1.16.19.19.39.38.64.48.27.12.49.08.77.06.42-.02.65-.37.58-.76-.05-.28-.07-.49-.26-.72Z"/>
          </g>
          <g>
            <g>
              <path class="cls-4" d="M10.91,23.32c1.42,5.2,2.68,10.43,4.28,15.4.41,1.24.81,2.47,1.27,3.66.45,1.19.93,2.36,1.47,3.47.53,1.11,1.14,2.14,1.84,3,.18.21.36.4.54.6l.57.51.54.38c.27.14.66.38.8.41.33.18.86.3,1.27.36.43.04.84,0,1.25-.1.81-.22,1.64-.77,2.36-1.57,1.45-1.61,2.47-3.96,2.89-6.28.21-1.15.26-2.36.07-3.31-.02-.12-.05-.22-.08-.33v-.04s-.01-.02-.01-.02h0s-.04-.12.04.08l-.04-.12-.09-.24c-.12-.3-.24-.68-.35-.91-.12-.21-.22-.43-.33-.65l-.45-.67c-.64-.86-1.47-1.55-2.47-2.04-.49-.26-1.03-.43-1.59-.58-.53-.14-1.19-.21-1.62-.22h-.19c-.81-.02-1.45-.69-1.43-1.5,0-.37.15-.7.38-.95.51-.57,1.06-1.29,1.54-1.99.49-.71.89-1.47,1.26-2.23.19-.38.33-.78.49-1.17.12-.4.27-.8.37-1.2.21-.8.32-1.62.32-2.43-.01-.4,0-.8-.09-1.19-.08-.38-.11-.78-.27-1.14-.14-.36-.24-.74-.46-1.06l-.28-.5-.07-.13-.03-.06h0s.14.21.07.1v-.02s-.04-.03-.04-.03l-.21-.27-.42-.54-.21-.27c-.07-.06-.13-.1-.2-.16-.28-.19-.45-.42-.78-.61-.33-.18-.62-.4-.96-.56-.35-.14-.7-.29-1.04-.44l-1.11-.33c-.38-.09-.77-.14-1.16-.23-.38-.1-.79-.09-1.19-.14l-.6-.06h-.61c-.81-.04-1.64.05-2.46.12-.82.14-1.65.22-2.46.45-.82.18-1.62.45-2.42.71-.41.12-.78.32-1.18.47-.39.16-.8.31-1.17.51-.38.19-.76.39-1.15.57-.37.2-.74.43-1.11.65-.38.21-.74.44-1.08.7l-1.07.74-.12.08c-.56.38-1.32.24-1.71-.32-.34-.5-.27-1.15.14-1.57.68-.68,1.33-1.43,2.12-2.01.38-.31.76-.62,1.15-.92.4-.28.82-.54,1.23-.81.82-.54,1.71-.97,2.6-1.39.91-.38,1.82-.78,2.78-1.03.94-.32,1.93-.48,2.91-.68,1-.11,2-.24,3.02-.21h.76s.77.07.77.07c.51.07,1.02.08,1.53.21.51.12,1.02.2,1.52.37l1.49.56c.48.24.95.52,1.41.79.46.29.87.66,1.3.99.43.33.83.85,1.22,1.28l.28.34.18.29.36.59.18.29.12.2.04.09.08.19.3.74c.23.48.32,1.01.45,1.53.25,1.03.31,2.08.27,3.11-.02,1.03-.22,2.03-.45,3-.12.48-.28.95-.42,1.43-.18.46-.35.92-.54,1.37-.39.9-.83,1.77-1.31,2.61-.49.86-.99,1.64-1.64,2.48l-1.24-2.45c.93-.07,1.63-.01,2.44.1.78.13,1.56.3,2.31.61,1.51.56,2.93,1.53,3.99,2.8l.75.98c.22.37.44.75.66,1.14.2.37.29.64.44.96l.1.23.05.12.09.27c.06.21.15.44.19.65.38,1.71.3,3.28.09,4.8-.22,1.52-.65,2.98-1.24,4.4-.6,1.41-1.38,2.78-2.46,4.02-1.07,1.23-2.51,2.36-4.33,2.89-.9.25-1.86.36-2.79.28-.45-.06-.92-.1-1.35-.23l-.65-.17-.67-.25c-.51-.19-.7-.31-1.04-.47l-.11-.06-.12-.07-.04-.02-.07-.04-.28-.17-.56-.36c-.34-.26-.67-.52-.99-.8-.29-.28-.59-.57-.88-.86-1.11-1.17-1.98-2.44-2.73-3.73-1.49-2.59-2.5-5.29-3.24-8.02-.74-2.73-1.25-5.48-1.57-8.25-.16-1.38-.27-2.77-.34-4.15-.05-1.39-.09-2.77,0-4.19.04-.69.63-1.21,1.32-1.17.55.03.99.41,1.13.91h0Z"/>
              <path class="cls-4" d="M37.92,12.16s-.13.2-.43.68c-.28.46-.67,1.16-1.05,2.08-.37.92-.71,2.04-.87,3.34-.15,1.3-.11,2.76.23,4.36l.06.3.03.15v.02c.05.18-.05-.22-.04-.17v.04s.04.09.04.09c.07.24.15.48.22.72.07.23.14.52.22.7.08.13.15.27.21.41.08.28.32.59.52.92l.15.25.2.21c.13.14.25.29.38.45,1.11,1.1,2.89,1.93,4.82,1.85.94-.03,1.93-.19,2.72-.6.38-.2.76-.42,1.01-.68.17-.11.23-.27.34-.4l.08-.1.02-.02s.05-.08-.03.06v-.03s.07-.11.07-.11l.22-.42c1.04-1.96,1.66-4.27,1.73-6.52.09-2.26-.4-4.5-1.69-6.22-.68-.82-1.49-1.57-2.46-2.08l-.14-.08-.21-.1-.43-.2c-.26-.1-.47-.17-.72-.25-.51-.13-1.02-.27-1.52-.26-.49,0-.98.02-1.35.18-.38.14-.65.35-.7.51-.05.15-.02.22.08.45.01.12.15.18.11.1.09.06.2.15.37.24.65.37,1.58.65,2.45.85.89.18,1.78.34,2.65.41,1.73.16,3.35.06,4.75-.16,1.4-.22,2.6-.58,3.57-.94.97-.36,1.69-.74,2.2-.99.5-.27.76-.42.76-.42l.09-.05c.6-.33,1.35-.11,1.67.49.27.5.16,1.11-.24,1.49,0,0-.26.24-.74.7-.51.43-1.27,1.05-2.36,1.67-1.09.62-2.5,1.23-4.2,1.66-1.7.41-3.68.63-5.84.46-1.08-.1-2.2-.28-3.34-.64-1.14-.38-2.3-.86-3.46-1.81-.29-.23-.58-.54-.86-.91-.38-.53-.55-.97-.62-1.43-.2-.87-.01-2.07.66-2.86.65-.79,1.47-1.18,2.23-1.38.77-.21,1.51-.25,2.24-.21.73.03,1.42.17,2.11.34.34.1.72.23,1.04.34l.44.17.22.09c.17.07.18.09.28.14,1.27.61,2.5,1.43,3.55,2.51,1.01,1.1,1.81,2.4,2.36,3.8.56,1.4.79,2.89.86,4.36.08,1.48-.11,2.93-.42,4.35-.14.71-.36,1.4-.59,2.09-.26.68-.58,1.48-.86,2l-.21.43-.05.11v.03c-.09.15-.05.06-.07.11l-.05.07-.2.29c-.27.38-.53.79-.87,1.07-.63.65-1.34,1.11-2.06,1.49-1.45.76-2.96,1.05-4.44,1.13-2.95.17-5.91-.73-8.18-2.53-.26-.25-.53-.49-.79-.74l-.38-.37-.32-.42c-.43-.55-.84-1.1-1.16-1.8-.17-.33-.33-.67-.47-1-.11-.3-.16-.51-.24-.76-.07-.24-.14-.48-.22-.72l-.1-.38-.03-.21-.06-.42c-.37-2.24-.19-4.42.34-6.21.51-1.81,1.34-3.22,2.14-4.26.8-1.04,1.56-1.71,2.11-2.14.54-.41.94-.64.92-.62.52-.44,1.3-.37,1.73.16.44.52.37,1.3-.16,1.73Z"/>
              <path class="cls-4" d="M62.22,4.79s-.07.06-.2.18c-.04.05-.2.15-.18.2-.02.06-.03.12-.06.17-.23.4-.58,1.13-.87,2.19-.29,1.05-.55,2.4-.67,3.94-.05.77-.06,1.58-.02,2.41.04.41.06.84.14,1.24l.05.31v.04s0,.02,0,.02c0-.02.01.08,0-.04l.02.1.04.19c.05.24.1.55.15.75.39,1.67,1.09,3.61,2.2,4.9,1.09,1.31,2.81,1.95,5.03,1.59l.2-.02h.05s-.2.04-.09.01h.03s.12-.04.12-.04l.48-.12c.14-.07.27-.1.49-.21.38-.2.76-.45,1.1-.81.68-.69,1.24-1.68,1.64-2.79.78-2.25.95-4.93.61-7.44-.16-1.26-.51-2.48-1-3.5-.13-.25-.26-.49-.41-.71l-.03-.04v-.02s-.08-.09.04.05l-.09-.1-.17-.2-.34-.41c-.21-.23-.38-.37-.57-.57l-.7-.54c-.98-.65-2.12-1.13-3.26-1.25-.29-.05-.56-.02-.84-.04-.26.04-.54.04-.77.12-.49.11-.89.32-1.03.55-.15.19-.2.56-.13.59.12.23.45.62.87.9.85.6,1.92,1.05,2.97,1.38,2.14.63,4.26.92,6.22,1.04.98.07,1.93.07,2.82.01.9-.03,1.75-.13,2.54-.25,1.59-.24,2.96-.58,4.08-.93,1.11-.35,1.98-.69,2.57-.93.59-.24.91-.37.91-.37l.07-.03c.63-.26,1.35.04,1.61.67.22.54.03,1.14-.42,1.47,0,0-.31.22-.88.64-.59.4-1.48.95-2.68,1.54-1.21.58-2.74,1.15-4.57,1.59-1.83.4-3.96.65-6.28.53-2.32-.11-4.82-.65-7.26-1.82-1.22-.6-2.44-1.29-3.57-2.36-.55-.55-1.14-1.15-1.51-2.15-.05-.17-.09-.34-.12-.52l-.04-.25v-.12s0-.12,0-.12v-.06s0-.31,0-.19v-.05s.09-.39.09-.39c.05-.26.12-.52.26-.76.13-.24.24-.49.43-.67.69-.83,1.58-1.24,2.4-1.45.84-.22,1.66-.27,2.47-.22,1.61.12,3.18.55,4.61,1.34.35.21.69.43,1.04.66.34.27.73.56,1.02.83l.38.37.19.19.1.09.17.2c.3.34.55.69.78,1.06.91,1.45,1.42,3.01,1.75,4.56.63,3.11.55,6.32-.43,9.42-.51,1.54-1.27,3.08-2.5,4.4-.6.66-1.35,1.23-2.16,1.66-.38.22-.89.42-1.38.58l-.5.14-.12.03-.18.04h-.07s-.29.06-.29.06c-1.53.3-3.23.35-4.87-.06-1.64-.41-3.18-1.27-4.33-2.38-1.16-1.1-1.97-2.38-2.56-3.63-.31-.62-.52-1.26-.72-1.88-.09-.31-.17-.62-.26-.92-.07-.33-.13-.65-.2-.97-.06-.32-.08-.54-.13-.82l-.03-.19-.03-.28-.03-.46c-.05-.61-.04-1.19-.03-1.75.04-1.12.2-2.16.4-3.11.42-1.9,1.08-3.48,1.78-4.72.7-1.24,1.49-2.15,2.19-2.71.22-.17.42-.31.6-.42.2-.13.25-.11.34-.16.16-.06.25-.1.25-.1.65-.25,1.37.08,1.62.72.19.5.04,1.04-.33,1.37h-.01Z"/>
              <path class="cls-4" d="M92.88,2.89s-.47.23-.78.55c-.46.38-1.1,1.05-1.78,2.04-.68,1-1.37,2.34-1.99,3.98-.31.82-.58,1.72-.85,2.68-.06.24-.12.49-.18.74l-.09.38v.05s-.02.02-.02.02c-.03.14.04-.17.03-.12l-.02.11-.03.21c-.05.28-.1.57-.15.86-.02.23,0,.38-.01.57-.06,1.66.49,3.69,1.78,5.05,1.26,1.4,3.33,1.95,5.57,1.11l.1-.03s-.28.13-.13.06l.03-.02.06-.03.25-.12.51-.25c.4-.17.54-.33.74-.47.19-.13.4-.26.62-.5.21-.22.46-.39.65-.64.85-.91,1.47-2.11,1.99-3.36,1.03-2.51,1.31-5.56.73-8.08-.08-.31-.15-.63-.28-.89l-.16-.42c-.07-.12-.14-.23-.21-.35-.06-.1-.15-.27-.19-.32l-.38-.46c-.14-.17-.24-.27-.34-.38l-.31-.33c-.93-.88-2.06-1.51-3.11-1.49-.52,0-1,.14-1.32.37-.06.06-.15.11-.19.18l-.04.04h-.01c.18-.34.04-.07.08-.14l-.03.07-.12.26c-.03.07-.11.21-.09.23,0,.03.01.06.01.09,0,.05-.04.1-.02.27-.02,1.1.52,2.41,1.29,3.43,1.58,2.13,4.1,3.22,6.47,3.56,1.21.15,2.4.15,3.55.08.29-.03.58-.06.86-.08l.43-.03h.11s.03,0,.03,0c.1-.01-.11.02-.07.01h.06s.23-.05.23-.05c.31-.05.61-.11.91-.16l.45-.08.36-.1c.92-.22,1.93-.55,2.82-.96.45-.18.89-.38,1.3-.61.42-.21.82-.43,1.2-.68,1.54-.91,2.8-1.89,3.81-2.74,1.02-.84,1.78-1.57,2.27-2.07.48-.49.74-.75.74-.75l.08-.09c.48-.49,1.25-.5,1.74-.02.42.41.48,1.04.2,1.51l-.17.29c-.11.18-.27.44-.49.77-.45.65-1.14,1.58-2.13,2.67-1,1.08-2.31,2.33-4.03,3.53-.43.3-.88.6-1.37.87-.48.3-.99.57-1.53.82-.53.28-1.11.49-1.7.71-.57.24-1.26.41-1.94.59l-.51.13-.45.07c-.3.05-.61.09-.91.14l-.23.03h-.06s-.13.02-.13.02h-.03s-.13,0-.13,0l-.52.03c-.35,0-.7.02-1.05.02-1.42.02-2.9-.22-4.37-.59-2.95-.81-5.84-2.63-7.84-5.34-.98-1.37-1.76-2.96-1.87-4.95-.03-.22,0-.55.06-.88.03-.16.06-.32.1-.48.04-.18.07-.2.11-.31l.1-.27.03-.07c.05-.09-.09.16.11-.21l.03-.05.13-.19c.17-.26.38-.47.59-.68.87-.77,1.95-1.14,2.99-1.23,2.13-.17,4.03.74,5.5,1.87.19.15.38.32.56.48.19.17.38.34.5.47l.41.43c.23.24.33.43.5.65.15.21.31.43.45.65l.33.67c.24.45.39.9.53,1.35.58,1.81.67,3.64.57,5.41-.1,1.78-.48,3.51-1.08,5.18-.62,1.66-1.43,3.27-2.64,4.67-.27.36-.64.67-.96,1-.3.33-.71.64-1.14.94-.42.3-.87.62-1.17.75l-.5.26-.25.13-.06.03-.03.02-.19.09-.16.06c-1.67.68-3.59,1.01-5.47.72-1.88-.28-3.65-1.14-4.98-2.34-1.35-1.2-2.29-2.7-2.86-4.24-.13-.39-.25-.78-.36-1.17-.07-.4-.14-.79-.21-1.18-.08-.39-.07-.78-.09-1.16-.02-.38-.02-.76.03-1.19.04-.4.08-.84.13-1.19.07-.28.13-.57.2-.85l.15-.57.14-.43c.1-.29.19-.57.29-.85.4-1.11.86-2.15,1.36-3.09,1-1.89,2.18-3.41,3.34-4.51,1.16-1.1,2.3-1.77,3.14-2.11,1-.4,1.28-.35,1.31-.38.64-.24,1.35.08,1.59.72.24.64-.08,1.35-.72,1.59Z"/>
            </g>
            <path class="cls-4" d="M131.71,1.77c-3.81,2.74-6.12,8.09-7.85,12.32-1.28,3.14-4.01,10.27-1.7,13.39.04.06.14.09.2.03,1.02-1.16.92-2.12,1.33-3.63.69-2.57,1.98-5.31,3.08-7.74,1.97-4.33,5.14-7.95,7.15-12.16.62-1.3-.77-3.23-2.2-2.2Z"/>
            <path class="cls-4" d="M122.08,30.03c-.53-.48-1.23-.9-1.98-.7-.32.09-.67.29-.97.51-.11.05-.21.11-.3.18-.85.59-1.23,1.64-.94,2.64.5,1.75,2.64,2.7,4.13,1.53,1.34-1.05,1.28-3.05.05-4.17Z"/>
          </g>
        </g>
      </g>
    </g>
  </g>
</svg>