<?xml version="1.0" encoding="UTF-8"?>
<svg id="Layer_2" data-name="Layer 2" xmlns="http://www.w3.org/2000/svg" viewBox="0 0 145.19 123.93">
  <defs>
    <style>
      .cls-1 {
        fill: #f2f2f9;
      }

      .cls-1, .cls-2, .cls-3, .cls-4, .cls-5, .cls-6 {
        stroke-width: 0px;
      }

      .cls-2 {
        fill: #272b26;
      }

      .cls-3 {
        fill: #db581f;
      }

      .cls-4 {
        fill: #fefefe;
      }

      .cls-5 {
        fill: #d9d9d9;
      }

      .cls-6 {
        fill: #058d39;
      }
    </style>
  </defs>
  <g id="Objects">
    <g>
      <polyline class="cls-3" points="73.7 120.79 73.71 120.79 73.7 120.79"/>
      <path class="cls-6" d="M66.28.01s0,0,0-.01c0,0,0,0,0,.01"/>
      <polyline class="cls-6" points="69.24 1.88 69.24 1.86 69.24 1.88"/>
      <path class="cls-5" d="M9.08,42.5c.83,0,1.73.09,2.81.28,1.13.2,2.23.52,3.25.84.74.24,1.48.49,2.21.74.85.3,1.62.51,2.35.63.62.09,1.23.14,1.81.14.37,0,.75-.02,1.12-.05,1.08-.12,2.19-.4,3.31-.82.81-.32,1.67-.75,2.56-1.26.08-.05.18-.08.28-.08.17,0,.32.07.44.19.18.07.31.24.35.44.23,1.15.36,2.32.41,3.49.04,1.05-.02,2.16-.18,3.32-.29,2.1-.9,4.13-1.48,6.1l-.04.11c-.95,3.18-2.21,6.84-4.42,9.9-.74,1.03-1.59,1.97-2.53,2.8-.98.87-2.11,1.62-3.37,2.25-.07.04-.15.06-.24.06-.11,0-.22-.03-.32-.09l-.07.02c-.2.04-.4.06-.61.08-.21.02-.39.03-.57.03-.27,0-.54-.02-.8-.05-.91-.11-1.74-.42-2.39-.9-.57-.42-1.01-1-1.31-1.73-.13-.31-.23-.63-.33-.95l-.03-.1c-.11-.37-.21-.68-.33-.99l.09.13c-.19-.35-.34-.61-.49-.84-.14-.18-.27-.31-.4-.42-.1-.07-.22-.14-.33-.2-.18-.07-.36-.13-.54-.16-.21-.03-.41-.04-.61-.04s-.4.01-.6.03c-.41.04-.82.11-1.22.18-.55.09-1.18.2-1.8.23-.08,0-.16,0-.24,0-.42,0-.81-.06-1.14-.18-.24-.09-.44-.19-.61-.31-.26-.19-.45-.42-.6-.62-.16-.23-.26-.47-.36-.73-.13-.32-.19-.66-.23-.96-.12-.86-.12-1.76,0-2.68.1-.7.28-1.42.58-2.27l.11-.32c.19-.53.33-.94.41-1.37.03-.24.04-.48.03-.71-.03-.25-.09-.49-.18-.75-.19-.45-.45-.9-.82-1.41l-.3-.38c-.19-.24-.38-.48-.56-.73-.26-.37-.49-.77-.68-1.2C.15,50.39-.01,49.57,0,48.77c.01-.75.23-1.51.64-2.26.37-.68.94-1.32,1.69-1.9.79-.6,1.71-1.07,2.91-1.48.99-.35,2.12-.55,3.36-.61.16,0,.32-.01.48-.01"/>
      <path class="cls-4" d="M21.33,52.42c.15.05.27.25.2.41-.4.9-.86,1.78-1.35,2.64-.51.88-1.08,1.72-1.65,2.56-1.12,1.66-2.26,3.31-3.18,5.09-.23.45-.43.91-.62,1.38-.22.54-.39,1.09-.56,1.64-.1.34-.46.55-.81.53-.41-.03-.79-.42-.74-.85.23-1.75.97-3.4,1.95-4.86.93-1.4,2.11-2.62,3.23-3.87l-.1.11c1.1-1.23,2.18-2.52,2.94-3.98.1-.2.19-.4.28-.6.06-.13.17-.21.3-.21.03,0,.07,0,.11.02"/>
      <path class="cls-4" d="M14.22,54.47c.08.16,0,.32-.14.41-1.45.94-2.98,1.75-4.42,2.7.04-.02.08-.05.12-.08-.48.32-.95.65-1.4,1.01-.4.32-.78.68-1.12,1.06-.48.55-.89,1.15-1.23,1.79-.22.44-.41.9-.59,1.35-.14.35-.46.58-.85.55-.22-.01-.43-.12-.58-.29-.13-.15-.24-.4-.2-.61.06-.33.12-.65.23-.97.1-.31.24-.6.39-.88.24-.47.54-.9.89-1.3.37-.41.77-.78,1.21-1.12.46-.34.95-.64,1.44-.92.94-.53,1.94-.94,2.93-1.37.49-.21.97-.43,1.45-.66.51-.24,1-.52,1.47-.83.04-.03.08-.04.13-.04.12,0,.24.08.28.18"/>
      <path class="cls-1" d="M67.67,10.04c.94,0,1.97.04,3.06.11,3.39.24,6.91.92,10.44,2.02,3.29,1.01,6.58,2.43,9.78,4.21,3.07,1.71,5.93,3.73,8.48,6.01,3.23,2.88,6.01,6.23,8.58,9.41l.85,1.05c1.05,1.31,2.08,2.58,3.12,3.82l.16.2c1.12,1.34,2.27,2.71,3.55,3.85.77.65,1.53,1.17,2.32,1.59.64.3,1.27.52,1.93.69.99.2,2,.29,3.08.29.21,0,.42,0,.62-.01,1.45-.07,2.83-.3,3.99-.51l.75-.13c.99-.18,2.11-.38,3.18-.5.7-.08,1.38-.12,2.03-.12s1.25.04,1.87.12c1.37.18,2.71.61,3.98,1.27,1.37.71,2.64,1.6,3.77,2.66.45.43.84.89,1.16,1.38.17.25.32.51.45.81.13.29.21.6.27.81.12.45.12.98.02,1.55-.1.55-.33,1.11-.73,1.76-.37.61-.88,1.13-1.4,1.65l-.39.37c-.22.21-.45.42-.66.65-.17.2-.29.39-.4.58-.08.19-.15.39-.2.6-.06.36-.09.75-.07,1.23.05.76.26,1.48.41,1.97,0,0,.02.08.01.08l.13.37c.21.61.42,1.25.57,1.88.2.79.23,1.61.09,2.36-.12.62-.4,1.29-.86,1.98-.14.22-.32.42-.5.6-.19.2-.43.35-.66.49-.42.25-.91.31-1.33.33h-.1c-.44,0-.9-.12-1.29-.24-.37-.1-.74-.24-1.09-.37l-.34-.13c-.5-.19-.94-.33-1.34-.43-.32-.06-.61-.09-.89-.09-.28.02-.48.06-.67.11-.19.07-.36.16-.54.27-.18.13-.35.29-.52.47-.16.19-.29.4-.43.65-.25.57-.42,1.2-.55,1.71-.13.5-.27,1.07-.5,1.61-.09.22-.21.42-.33.63-.15.26-.36.5-.57.72-.24.26-.54.46-.77.61-.21.13-.42.25-.64.35.47.58.97,1.18,1.58,1.89.69.81,1.4,1.6,2.11,2.38l.39.43.82.91c2.12,2.4,4.26,5.05,5.53,8.12.27.66.5,1.37.7,2.16.19.76.28,1.47.28,2.17,0,.49-.11,1-.3,1.49-.16.41-.43.81-.83,1.24-.31.33-.71.59-1.09.83-.48.3-1.02.54-1.42.72l-.41.18c-.78.35-1.66.74-2.46,1.25-.5.34-.92.7-1.29,1.11-.51.61-.95,1.32-1.31,1.95-.36.61-.72,1.27-1.16,2.14l-.23.47-.16.32-.19.4c-.84,1.74-1.69,3.5-2.88,4.99-.77.97-1.68,1.8-2.72,2.46-.57.36-1.16.68-1.77.95-.65.29-1.39.55-2.32.8-1.29.36-2.67.54-4.09.54-.13,0-.27,0-.4,0-1.47-.04-2.98-.35-4.48-.92-1.4-.53-2.77-1.35-4.06-2.44-.43-.36-.85-.76-1.25-1.15l-.38-.36c-.55-.52-1.11-1.03-1.67-1.53l-.04-.07h0c-2.06-1.78-3.74-2.97-5.44-3.85-1.11-.54-2.23-.95-3.33-1.2-.88-.17-1.77-.26-2.65-.26-.13,0-.27,0-.4,0-.61.03-1.25.11-1.89.22-.59.1-1.2.26-1.94.49h-.09c-.71.27-1.24.48-1.71.7-.45.22-.9.47-1.36.76l-.08.05c-1.21.81-2.42,1.9-3.71,3.33-1.17,1.33-2.29,2.81-3.28,4.11l-.11.14c-.83,1.09-1.78,2.34-2.74,3.47-1.19,1.4-2.28,2.47-3.41,3.38-.61.49-1.28.93-1.92,1.33-.7.44-1.52.89-2.51,1.36-1.59.77-3.31,1.41-5.25,1.95-1.79.5-3.7.85-5.68,1.03-.87.07-1.71.11-2.51.11-.99,0-2.03-.06-3.09-.17-1.79-.2-3.59-.63-5.37-1.28-1.49-.54-3.03-1.27-4.72-2.24-1.46-.83-2.95-1.83-4.71-3.15-1.26-.95-2.59-2.05-4.18-3.44-.64-.56-1.28-1.14-1.91-1.71-.22-.2-.43-.4-.65-.6l-.22-.21c-.4-.38-.78-.72-1.16-1.06-1.43-1.25-2.69-2.14-3.97-2.8-.91-.45-1.9-.8-2.93-1.04-1.02-.2-2.11-.3-3.35-.3-.33,0-.65,0-.97.02h-.08c-.39.03-.81.06-1.24.1l-.27.02c-.31.03-.62.06-.93.07-.15,0-.31,0-.46,0-.7,0-1.4-.06-2.1-.18-1.57-.28-3.08-.91-4.36-1.83-1.29-.92-2.32-2.2-2.99-3.7-.3-.66-.52-1.43-.67-2.28-.13-.73-.16-1.55-.11-2.45.04-.66.16-1.37.38-2.25.18-.72.45-1.5.86-2.45.61-1.39,1.43-2.82,2.58-4.51,1.15-1.69,2.48-3.35,3.65-4.8.82-1.01,1.78-2.21,2.65-3.39.75-1.01,1.5-2.14,2.36-3.57.73-1.22,1.46-2.54,2.28-4.16l.05-.08c1.99-4.03,3.64-8.17,5.02-11.73l.14-.37c.66-1.72,1.33-3.42,1.97-5.13l1.06-2.81.86-2.28c2.4-6.37,5.06-13.09,8.83-19.07,1.87-2.97,4.03-5.69,6.42-8.09,2.49-2.5,5.43-4.73,8.73-6.62,2.92-1.68,6.23-2.9,9.81-3.64,2.34-.48,4.82-.72,7.39-.72"/>
      <path class="cls-5" d="M115.95,49.56c-.13-.12-.3-.19-.48-.19-.01,0-.02,0-.03,0-.38.02-.7.35-.67.74.03.47.07.94.13,1.41.04.34.09.68.15,1.02.13.77.3,1.53.5,2.28.41,1.47.92,2.91,1.55,4.3.35.77.72,1.53,1.13,2.28.37.68.75,1.36,1.18,2.01.45.69.91,1.37,1.4,2.03.46.62.94,1.23,1.44,1.84.86,1.04,1.82,2,2.78,2.95.92.92,1.87,1.83,2.82,2.73.18.17.44-.11.26-.28-.66-.63-1.26-1.29-1.84-1.99.02.02.03.04.04.05-.78-.95-1.49-1.96-2.16-3-.67-1.04-1.35-2.08-1.98-3.14-1.24-2.09-2.41-4.23-3.43-6.44-.54-1.18-1.04-2.39-1.46-3.62-.2-.6-.39-1.2-.55-1.82-.15-.58-.3-1.15-.41-1.73-.05-.31-.1-.62-.13-.93-.02-.18-.08-.35-.22-.48M122.25,67.26s-.06-.07-.08-.1c.04.05.07.09.11.14-.01-.01-.02-.02-.03-.04"/>
      <path class="cls-5" d="M105.46,71.41c.79,1.62,1.82,3.08,3,4.43,1,1.14,2.09,2.17,3.24,3.16,1.18,1.02,2.41,1.98,3.66,2.92,1.25.94,2.49,1.9,3.7,2.89,1.2.97,2.37,1.97,3.47,3.06,1.5,1.49,2.86,3.12,3.92,4.95.55.95,1.02,1.95,1.39,2.99.18.51.33,1.03.46,1.56.15.62.25,1.25.35,1.88.03.22-.08.47-.22.63-.16.18-.38.29-.62.3-.23.02-.46-.07-.63-.21-.05-.06-.1-.12-.16-.18-.08-.13-.13-.27-.14-.43-.33-1.6-.84-3.16-1.55-4.63-.93-1.86-2.14-3.56-3.5-5.13-2.01-2.28-4.31-4.28-6.58-6.29-1.17-1.03-2.33-2.08-3.46-3.16-1.11-1.06-2.17-2.16-3.18-3.32-1.37-1.58-2.58-3.32-3.49-5.2-.05-.09-.04-.2.05-.26.03-.02.07-.03.11-.03.06,0,.13.03.16.09"/>
      <path class="cls-5" d="M118.17,79.49c.65.58,1.36,1.09,2.09,1.58.66.44,1.34.86,2.02,1.27.68.41,1.35.83,2.01,1.27.67.45,1.31.93,1.92,1.45.62.54,1.19,1.14,1.7,1.79.08.1.1.26.07.38-.02.13-.1.24-.21.32-.11.07-.25.1-.38.07-.14-.03-.23-.1-.32-.21-.15-.19-.31-.38-.47-.57h0c-1.23-1.39-2.69-2.54-4.19-3.61-.75-.53-1.5-1.06-2.24-1.6-.39-.29-.77-.58-1.14-.88-.38-.31-.74-.63-1.1-.96-.08-.07-.09-.19-.02-.27.04-.04.09-.06.15-.06.05,0,.09.02.13.05"/>
      <path class="cls-5" d="M97.58,75.35c-.02-.1-.09-.18-.2-.18h-.02c-.1,0-.21.1-.19.21.3,1.74.71,3.48,1.25,5.17.51,1.59,1.12,3.14,1.82,4.66.8,1.73,1.69,3.41,2.65,5.06.96,1.65,1.97,3.26,2.97,4.87,2.01,3.21,3.95,6.47,5.64,9.86.16.32.31.64.46.97.06.18.17.34.31.47.08.05.16.11.24.16.27.14.58.16.86.07.27-.1.51-.29.64-.55.12-.24.18-.61.06-.86-.43-.91-.89-1.81-1.38-2.69-1.89-3.37-4.24-6.44-6.48-9.58-1.1-1.55-2.2-3.1-3.22-4.7-1.02-1.61-1.97-3.26-2.81-4.97h0c-1.11-2.31-1.98-4.75-2.48-7.26,0,.02,0,.03,0,.05-.05-.25-.1-.49-.14-.75M87.93,78.75s.01.03.02.04c0-.01-.01-.03-.02-.04M99.29,100.52s.04.08.06.12c-.02-.04-.04-.08-.06-.12"/>
      <path class="cls-5" d="M34.6,80.34c-.05-.03-.12-.04-.18-.04-.15,0-.3.07-.35.21-.52,1.32-1.2,2.57-2,3.75,0,0,.01-.02.02-.03,0,.01-.01.02-.02.03,0,0,0,.01-.01.02,0,0,0-.01.01-.02-.38.55-.78,1.09-1.21,1.61-.57.7-1.18,1.37-1.81,2.02-.63.66-1.27,1.31-1.93,1.94-1.32,1.26-2.65,2.51-3.95,3.79-1.27,1.25-2.52,2.54-3.55,4-.55.78-1.07,1.57-1.5,2.42-.43.85-.76,1.73-1.04,2.64-.07.26.01.59.15.8.15.24.4.4.68.46.45.09.97-.13,1.17-.56.76-1.64,1.7-3.18,2.72-4.67.08-.11.16-.22.24-.33,1.04-1.47,2.15-2.89,3.33-4.25,1.19-1.38,2.4-2.74,3.57-4.14,1.17-1.39,2.28-2.84,3.29-4.35,1-1.5,1.87-3.09,2.53-4.77.08-.2.03-.43-.17-.53M32.06,84.26s0,0,0,0c0,0,0,0,0,0h0"/>
      <path class="cls-5" d="M42.31,75.58s-.04,0-.06,0c-.14,0-.25.1-.29.23-.15.55-.32,1.1-.51,1.65v-.02c-.82,2.32-1.99,4.5-3.38,6.53h0c-.13.17-.25.36-.38.54-.93,1.33-1.91,2.62-2.91,3.89-1.02,1.31-2.05,2.62-3.01,3.98-.12.14-.2.3-.24.47,0,.09-.02.18-.02.27.02.26.14.51.33.69.41.37,1.06.33,1.43-.08,1.17-1.3,2.22-2.71,3.19-4.17.91-1.37,1.73-2.8,2.49-4.27.2-.39.38-.78.57-1.17.18-.39.37-.78.54-1.18.33-.76.64-1.52.94-2.3.59-1.54,1.11-3.12,1.53-4.72.04-.15-.08-.32-.23-.35M37.66,84.57s-.02.03-.03.05c0-.02.02-.03.03-.05"/>
      <path class="cls-5" d="M123.54,47.46c-.05-.04-.12-.06-.18-.06-.07,0-.13.03-.19.09-.08.1-.09.29.03.36.83.53,1.71,1,2.63,1.36.94.37,1.9.66,2.88.92.99.26,1.98.49,2.98.69.99.2,1.98.43,2.95.73l-.22-.07c.63.2,1.25.4,1.86.66.56.24,1.09.51,1.61.83.26.17.51.34.75.53.2.15.42.23.67.21.24-.02.46-.14.62-.33.33-.39.26-.95-.12-1.28-.94-.84-2.07-1.47-3.26-1.88-.63-.22-1.28-.4-1.93-.53-.58-.11-1.17-.2-1.77-.28-.63-.08-1.28-.15-1.91-.21-.61-.06-1.21-.09-1.82-.15-1.19-.12-2.39-.3-3.54-.65h0c-.7-.22-1.36-.51-1.99-.9-.02-.01-.04-.03-.07-.04M137.72,52.86s.1.06.14.09c-.05-.03-.1-.06-.14-.09"/>
      <path class="cls-5" d="M132.21,53.61s-.08-.03-.13-.03c-.12,0-.23.06-.28.18-.07.15,0,.34.15.41.61.27,1.19.6,1.76.95,0,0-.02-.01-.03-.02,1.27.81,2.45,1.77,3.49,2.87.67.74,1.24,1.57,1.7,2.44.18.36.34.73.47,1.12.11.33.2.66.27,1,0,.04.01.08.02.12.04.21.1.38.27.52.15.13.36.19.56.18.41-.04.75-.42.7-.83-.07-.55-.18-1.09-.39-1.61-.2-.52-.46-1.02-.76-1.49-.61-.94-1.39-1.76-2.24-2.48-.85-.73-1.78-1.38-2.75-1.94-.91-.52-1.86-.96-2.82-1.38M139.6,62.45s0,.05.01.07c0-.02,0-.05-.01-.07"/>
      <path class="cls-5" d="M99.02,27.69c-1.19-.81-2.61-1.42-4.07-1.41-.08,0-.16,0-.23,0-.16,0-.29.04-.41.15-.11.1-.18.24-.19.39,0,.15.05.3.14.41.09.1.25.2.4.19.38-.02.75,0,1.12.07.53.11,1.03.29,1.53.51.64.32,1.23.71,1.78,1.16.55.48,1.05,1.02,1.47,1.62.18.27.33.55.47.84.13.28.49.4.77.26.28-.14.39-.49.26-.77-.32-.67-.75-1.3-1.24-1.85-.53-.59-1.13-1.13-1.79-1.58M97.17,27.94s.08.04.12.06c-.04-.02-.08-.04-.12-.06"/>
      <path class="cls-5" d="M49.9,25.19c-.74-.25-1.51-.37-2.28-.37-2.41,0-4.82,1.16-6.33,3.03-.1.12-.17.24-.17.41s.06.3.17.4c.11.11.25.17.41.17.14,0,.32-.06.41-.17.36-.44.76-.84,1.21-1.19.49-.36,1.01-.67,1.56-.92.6-.25,1.23-.43,1.88-.53.58-.07,1.16-.07,1.73,0,.38.06.75.15,1.12.28.3.1.62-.11.7-.4.09-.31-.1-.6-.4-.7M46.85,26s-.06,0-.09.01c.03,0,.06,0,.09-.01"/>
      <path class="cls-2" d="M66.36,40.6c.66,0,1.33.03,2.01.1,3.63.34,7.42,1.66,10.97,3.82,1.61.98,3.2,2.17,4.72,3.54,1.41,1.27,2.71,2.7,3.88,4.25.54.72,1.04,1.45,1.46,2.17.41.68.79,1.42,1.16,2.24.73,1.6,1.27,3.27,1.6,4.97.35,1.77.45,3.5.29,5.15-.17,1.73-.64,3.36-1.41,4.84-.75,1.44-1.88,2.75-3.26,3.8-1.15.87-2.29,1.38-3.39,1.52-.24.03-.47.05-.71.05-.81,0-1.62-.18-2.4-.53-.92-.41-1.8-1.01-2.84-1.93-.93-.83-1.79-1.76-2.59-2.65l-.78-.87c-.6-.67-1.19-1.34-1.81-1.99-.79-.83-1.43-1.44-2.07-1.96-.6-.48-1.15-.86-1.7-1.16-.47-.17-.97-.3-1.46-.39-.5-.08-.95-.12-1.36-.12-.16,0-.32,0-.49.02-.66.07-1.35.24-2.11.52-1.3.5-2.51,1.2-3.63,1.87-.53.32-1.06.65-1.58.98-.69.43-1.38.87-2.08,1.28-.95.56-2.23,1.25-3.62,1.68-.7.22-1.39.33-2.05.33-.5,0-.99-.06-1.45-.19-1.44-.39-2.52-1.48-3.16-2.32-.96-1.25-1.68-2.74-2.1-4.33-.91-3.48-.05-6.84.84-9.05,1.14-2.86,3-5.62,5.51-8.22,1.14-1.17,2.39-2.26,3.71-3.23,1.35-.99,2.67-1.78,4.01-2.42,1.37-.65,2.77-1.12,4.14-1.39,1.22-.24,2.48-.36,3.76-.36"/>
      <path class="cls-2" d="M96.14,38.52c.15,0,.3,0,.44.02.85.06,1.74.3,2.74.74.84.37,1.66.9,2.52,1.61.75.62,1.41,1.36,1.98,2.19.18.26.33.53.47.79.06.1.12.2.18.3.43.78.74,1.64.92,2.56.16.87.16,1.78-.01,2.7-.15.79-.48,1.62-.95,2.4-.44.73-1.01,1.38-1.69,1.93-.67.54-1.44.97-2.29,1.28-.69.24-1.47.37-2.26.37-.11,0-.22,0-.33,0-1.23-.06-2.43-.47-3.47-1.19-1.79-1.24-3.19-3.3-3.95-5.8-.35-1.16-.51-2.33-.49-3.48.03-1.17.27-2.26.74-3.23.46-.96,1.22-1.79,2.15-2.33.48-.28,1.03-.5,1.64-.65.55-.13,1.11-.2,1.67-.2"/>
      <path class="cls-2" d="M43.3,34.75c-.14,0-.28,0-.42.01-.81.05-1.66.29-2.6.7-.8.35-1.58.85-2.39,1.53-.71.59-1.34,1.29-1.88,2.08-.17.25-.32.5-.44.75-.06.1-.11.19-.17.29-.41.74-.7,1.55-.87,2.43-.16.82-.15,1.69.01,2.57.14.75.45,1.54.9,2.28.42.69.96,1.31,1.61,1.83.64.52,1.37.92,2.17,1.21.66.23,1.4.36,2.15.36.11,0,.21,0,.31,0,1.17-.06,2.3-.45,3.29-1.13,1.7-1.18,3.03-3.13,3.75-5.5.33-1.1.49-2.21.46-3.3-.02-1.11-.26-2.14-.7-3.06-.43-.91-1.16-1.7-2.05-2.21-.45-.27-.98-.47-1.56-.62-.52-.13-1.05-.19-1.58-.19"/>
    </g>
  </g>
</svg>